<svg width="600" height="500" viewBox="0 0 600 500" fill="none" xmlns="http://www.w3.org/2000/svg">
<rect width="600" height="500" fill="#6C7AF5"/>
<path d="M506.356 366.666H93V366.872H506.356V366.666Z" fill="#EBEBEB"/>
<path d="M464.938 379.968H437.558V380.174H464.938V379.968Z" fill="#EBEBEB"/>
<path d="M366.823 382.216H359.639V382.423H366.823V382.216Z" fill="#EBEBEB"/>
<path d="M436.731 372.296H420.866V372.503H436.731V372.296Z" fill="#EBEBEB"/>
<path d="M172.075 373.685H136.369V373.891H172.075V373.685Z" fill="#EBEBEB"/>
<path d="M184.674 373.685H179.441V373.891H184.674V373.685Z" fill="#EBEBEB"/>
<path d="M279.133 377.173H201.687V377.38H279.133V377.173Z" fill="#EBEBEB"/>
<path d="M288.932 329.794H129.302C128.052 329.792 126.853 329.294 125.97 328.409C125.086 327.524 124.59 326.324 124.59 325.074V100.679C124.601 99.4358 125.102 98.247 125.984 97.3709C126.866 96.4948 128.059 96.0021 129.302 96H288.932C290.184 96 291.385 96.4973 292.27 97.3826C293.155 98.2679 293.653 99.4686 293.653 100.721V325.074C293.653 326.326 293.155 327.526 292.27 328.412C291.385 329.297 290.184 329.794 288.932 329.794ZM129.302 96.1653C128.106 96.1675 126.96 96.6441 126.116 97.4903C125.271 98.3366 124.797 99.4835 124.797 100.679V325.074C124.797 326.27 125.271 327.416 126.116 328.263C126.96 329.109 128.106 329.585 129.302 329.588H288.932C290.129 329.585 291.275 329.109 292.121 328.263C292.967 327.417 293.444 326.27 293.446 325.074V100.679C293.444 99.4827 292.967 98.3359 292.121 97.4898C291.275 96.6438 290.129 96.1675 288.932 96.1653H129.302Z" fill="#EBEBEB"/>
<path d="M467.758 329.794H308.12C306.869 329.792 305.669 329.294 304.784 328.409C303.9 327.525 303.402 326.325 303.399 325.074V100.679C303.412 99.4351 303.915 98.2462 304.799 97.3704C305.683 96.4945 306.876 96.0021 308.12 96H467.758C469 96.0043 470.19 96.4979 471.071 97.3738C471.951 98.2497 472.451 99.4373 472.462 100.679V325.074C472.462 326.323 471.967 327.521 471.085 328.406C470.204 329.291 469.007 329.79 467.758 329.794ZM308.12 96.1653C306.923 96.1675 305.777 96.6438 304.931 97.4898C304.085 98.3359 303.608 99.4827 303.606 100.679V325.074C303.608 326.27 304.085 327.417 304.931 328.263C305.777 329.109 306.923 329.585 308.12 329.588H467.758C468.955 329.585 470.102 329.109 470.948 328.263C471.794 327.417 472.27 326.27 472.272 325.074V100.679C472.27 99.4827 471.794 98.3359 470.948 97.4898C470.102 96.6438 468.955 96.1675 467.758 96.1653H308.12Z" fill="#EBEBEB"/>
<path d="M306.581 366.666H330.465V281.58H306.581V366.666Z" fill="#E6E6E6"/>
<path d="M311.112 366.666H306.573V358.779H315.865L311.112 366.666Z" fill="#F0F0F0"/>
<path d="M442.848 366.666H466.731V281.58H442.848V366.666Z" fill="#E6E6E6"/>
<path d="M306.582 364.591H446.809V281.573H306.582V364.591Z" fill="#F0F0F0"/>
<path d="M400.57 286.508V359.986H442.137V286.508H400.57Z" fill="#E6E6E6"/>
<path d="M417.246 290.724H425.464C427.294 290.692 429.093 290.249 430.729 289.428C432.364 288.606 433.794 287.428 434.913 285.979H407.797C408.917 287.426 410.347 288.604 411.982 289.425C413.618 290.246 415.417 290.69 417.246 290.724Z" fill="#F0F0F0"/>
<path d="M355.902 286.516V359.994H397.469V286.516H355.902Z" fill="#E6E6E6"/>
<path d="M372.155 290.724H380.381C382.204 290.686 383.995 290.24 385.623 289.419C387.251 288.598 388.674 287.422 389.789 285.979H362.714C363.832 287.427 365.26 288.604 366.895 289.426C368.529 290.247 370.326 290.691 372.155 290.724Z" fill="#F0F0F0"/>
<path d="M311.235 286.516V359.994H352.802V286.516H311.235Z" fill="#E6E6E6"/>
<path d="M327.49 290.724H335.716C337.543 290.69 339.339 290.245 340.972 289.424C342.604 288.603 344.032 287.425 345.148 285.979H318.049C319.167 287.427 320.595 288.604 322.229 289.426C323.864 290.247 325.661 290.691 327.49 290.724Z" fill="#F0F0F0"/>
<path d="M442.27 366.666H446.8V358.779H437.508L442.27 366.666Z" fill="#F0F0F0"/>
<path d="M156.367 259.458H316.608V123.025L156.367 123.025L156.367 259.458Z" fill="#E6E6E6"/>
<path d="M152.764 259.458H315.039V123.025L152.764 123.025L152.764 259.458Z" fill="#F5F5F5"/>
<path d="M308.564 252.911V129.573H159.235V252.911H308.564Z" fill="#FAFAFA"/>
<path d="M290.245 252.911L231.474 129.573H211.509L270.28 252.911H290.245Z" fill="white"/>
<path d="M264.626 252.911L205.846 129.573H192.106L250.877 252.911H264.626Z" fill="white"/>
<path d="M214.691 252.902V129.564H206.97V252.902H214.691Z" fill="#E6E6E6"/>
<path d="M266.015 252.902V129.564H258.293V252.902H266.015Z" fill="#E6E6E6"/>
<path d="M213.295 257.068V124.703H203.531V257.068H213.295Z" fill="#F5F5F5"/>
<path d="M264.618 257.068V124.703H254.855V257.068H264.618Z" fill="#F5F5F5"/>
<path d="M159.922 252.911V129.573H159.236V252.911H159.922Z" fill="#E6E6E6"/>
<path d="M150.044 114.601H323.653C323.872 114.601 324.083 114.688 324.238 114.843C324.393 114.998 324.48 115.209 324.48 115.428C324.48 115.647 324.393 115.857 324.238 116.012C324.083 116.167 323.872 116.254 323.653 116.254H150.044C149.824 116.254 149.614 116.167 149.459 116.012C149.304 115.857 149.217 115.647 149.217 115.428C149.217 115.209 149.304 114.998 149.459 114.843C149.614 114.688 149.824 114.601 150.044 114.601Z" fill="#E6E6E6"/>
<path d="M316.609 120.115C316.908 120.113 317.194 119.993 317.405 119.781C317.615 119.568 317.734 119.282 317.733 118.983V116.56C317.733 116.262 317.615 115.976 317.404 115.765C317.193 115.554 316.907 115.436 316.609 115.436C316.31 115.436 316.023 115.554 315.811 115.765C315.599 115.975 315.479 116.261 315.477 116.56V118.983C315.479 119.282 315.599 119.569 315.811 119.781C316.023 119.993 316.309 120.113 316.609 120.115Z" fill="#E6E6E6"/>
<path d="M162.634 120.115C162.934 120.113 163.221 119.993 163.433 119.781C163.645 119.569 163.765 119.282 163.767 118.983V116.56C163.765 116.261 163.644 115.975 163.432 115.765C163.22 115.554 162.933 115.436 162.634 115.436C162.336 115.436 162.05 115.554 161.839 115.765C161.628 115.976 161.51 116.262 161.51 116.56V118.983C161.51 119.282 161.628 119.568 161.839 119.781C162.049 119.993 162.335 120.113 162.634 120.115Z" fill="#E6E6E6"/>
<path opacity="0.6" d="M150.308 183.152L312.468 183.152V115.436L150.308 115.436V183.152Z" fill="#E0E0E0"/>
<path d="M152.533 366.666H156.699V298.346H152.533V366.666Z" fill="#E6E6E6"/>
<path d="M250.274 285.044H227.713V298.338H250.274V285.044Z" fill="#E6E6E6"/>
<path d="M138.105 298.347H227.713V285.053H138.105V298.347Z" fill="#F5F5F5"/>
<path d="M250.274 306.605H227.713V319.899H250.274V306.605Z" fill="#E6E6E6"/>
<path d="M138.105 319.907H227.713V306.613H138.105V319.907Z" fill="#F5F5F5"/>
<path d="M250.274 328.174H227.713V341.468H250.274V328.174Z" fill="#E6E6E6"/>
<path d="M138.105 341.468H227.713V328.174H138.105V341.468Z" fill="#F5F5F5"/>
<path d="M242.139 366.666H246.306V298.346H242.139V366.666Z" fill="#E6E6E6"/>
<path d="M223.546 366.666H227.713V298.346H223.546V366.666Z" fill="#F5F5F5"/>
<path d="M138.106 366.666H142.272V298.346H138.106V366.666Z" fill="#F5F5F5"/>
<path d="M299.677 404C388.204 404 459.968 399.81 459.968 394.642C459.968 389.473 388.204 385.283 299.677 385.283C211.151 385.283 139.386 389.473 139.386 394.642C139.386 399.81 211.151 404 299.677 404Z" fill="#F5F5F5"/>
<path d="M420.377 357.109H286.119C284.8 357.125 283.491 356.864 282.279 356.342C281.067 355.82 279.978 355.05 279.082 354.08C278.187 353.111 277.505 351.964 277.081 350.714C276.657 349.464 276.5 348.139 276.62 346.825L293.064 131.243C293.32 128.466 294.592 125.88 296.636 123.983C298.68 122.085 301.353 121.008 304.142 120.959H438.4C439.72 120.942 441.029 121.202 442.242 121.724C443.454 122.245 444.544 123.016 445.44 123.985C446.336 124.955 447.017 126.102 447.441 127.353C447.865 128.603 448.021 129.929 447.899 131.243L431.455 346.825C431.198 349.602 429.925 352.186 427.881 354.084C425.837 355.981 423.166 357.058 420.377 357.109Z" fill="#4A57ED"/>
<path opacity="0.5" d="M420.377 357.109H286.119C284.8 357.125 283.491 356.864 282.279 356.342C281.067 355.82 279.978 355.05 279.082 354.08C278.187 353.111 277.505 351.964 277.081 350.714C276.657 349.464 276.5 348.139 276.62 346.825L293.064 131.243C293.32 128.466 294.592 125.88 296.636 123.983C298.68 122.085 301.353 121.008 304.142 120.959H438.4C439.72 120.942 441.029 121.202 442.242 121.724C443.454 122.245 444.544 123.016 445.44 123.985C446.336 124.955 447.017 126.102 447.441 127.353C447.865 128.603 448.021 129.929 447.899 131.243L431.455 346.825C431.198 349.602 429.925 352.186 427.881 354.084C425.837 355.981 423.166 357.058 420.377 357.109Z" fill="white"/>
<path d="M418.384 357.109H284.117C282.798 357.125 281.489 356.864 280.277 356.342C279.065 355.82 277.976 355.05 277.08 354.08C276.185 353.111 275.503 351.964 275.079 350.714C274.655 349.464 274.498 348.139 274.618 346.825L291.07 131.243C291.326 128.464 292.6 125.878 294.645 123.98C296.691 122.082 299.366 121.006 302.156 120.959H436.414C437.734 120.942 439.043 121.202 440.256 121.724C441.469 122.245 442.559 123.016 443.454 123.985C444.35 124.955 445.032 126.102 445.456 127.353C445.879 128.603 446.035 129.929 445.913 131.243L429.47 346.825C429.214 349.604 427.941 352.19 425.895 354.088C423.849 355.986 421.174 357.062 418.384 357.109Z" fill="#4A57ED"/>
<path opacity="0.7" d="M418.384 357.109H284.117C282.798 357.125 281.489 356.864 280.277 356.342C279.065 355.82 277.976 355.05 277.08 354.08C276.185 353.111 275.503 351.964 275.079 350.714C274.655 349.464 274.498 348.139 274.618 346.825L291.07 131.243C291.326 128.464 292.6 125.878 294.645 123.98C296.691 122.082 299.366 121.006 302.156 120.959H436.414C437.734 120.942 439.043 121.202 440.256 121.724C441.469 122.245 442.559 123.016 443.454 123.985C444.35 124.955 445.032 126.102 445.456 127.353C445.879 128.603 446.035 129.929 445.913 131.243L429.47 346.825C429.214 349.604 427.941 352.19 425.895 354.088C423.849 355.986 421.174 357.062 418.384 357.109Z" fill="white"/>
<path d="M284.383 353.679C283.502 353.692 282.629 353.519 281.82 353.172C281.011 352.826 280.284 352.312 279.686 351.666C279.089 351.019 278.634 350.254 278.353 349.42C278.071 348.586 277.968 347.702 278.05 346.825L294.278 134.104C294.446 132.251 295.292 130.526 296.655 129.261C298.018 127.996 299.801 127.279 301.661 127.25H435.919C436.799 127.237 437.673 127.41 438.482 127.756C439.291 128.103 440.018 128.617 440.615 129.263C441.213 129.91 441.667 130.675 441.949 131.509C442.231 132.343 442.334 133.227 442.252 134.104L426.023 346.825C425.856 348.676 425.011 350.4 423.65 351.665C422.288 352.93 420.507 353.647 418.649 353.679H284.383Z" fill="#4A57ED"/>
<path opacity="0.2" d="M417.699 163.03H321.618C321.096 163.037 320.579 162.934 320.099 162.728C319.62 162.522 319.189 162.217 318.835 161.833C318.481 161.45 318.211 160.996 318.044 160.501C317.877 160.007 317.816 159.483 317.865 158.963C317.968 157.867 318.471 156.848 319.278 156.1C320.084 155.351 321.138 154.925 322.238 154.904H418.319C418.84 154.896 419.358 154.998 419.837 155.203C420.317 155.408 420.748 155.712 421.102 156.095C421.456 156.478 421.725 156.932 421.893 157.426C422.06 157.92 422.121 158.444 422.072 158.963C421.974 160.061 421.473 161.085 420.666 161.836C419.858 162.587 418.801 163.012 417.699 163.03Z" fill="black"/>
<path opacity="0.3" d="M376.71 125.15H361.192C361.064 125.152 360.936 125.126 360.818 125.076C360.7 125.025 360.594 124.95 360.507 124.856C360.42 124.762 360.353 124.65 360.312 124.528C360.27 124.407 360.255 124.278 360.266 124.15C360.293 123.881 360.416 123.63 360.614 123.446C360.812 123.262 361.071 123.156 361.341 123.149H376.867C376.995 123.149 377.121 123.175 377.238 123.226C377.355 123.277 377.46 123.353 377.547 123.447C377.633 123.541 377.699 123.652 377.74 123.773C377.781 123.894 377.796 124.022 377.784 124.15C377.762 124.42 377.639 124.673 377.44 124.858C377.242 125.043 376.981 125.147 376.71 125.15Z" fill="#4A57ED"/>
<path d="M321.172 158.963C321.309 157.525 321.142 156.074 320.68 154.706C320.219 153.337 319.473 152.081 318.493 151.02C317.514 149.959 316.321 149.116 314.993 148.548C313.665 147.979 312.232 147.697 310.788 147.72H408.34C409.784 147.697 411.217 147.979 412.545 148.548C413.873 149.116 415.066 149.959 416.046 151.02C417.026 152.081 417.771 153.337 418.232 154.706C418.694 156.074 418.861 157.525 418.724 158.963H321.172Z" fill="#F0F0F0"/>
<path d="M310.812 147.719C307.761 147.766 304.835 148.941 302.599 151.017C300.363 153.093 298.974 155.923 298.701 158.963L288.706 289.972C288.434 293.01 287.047 295.84 284.812 297.917C282.577 299.993 279.653 301.168 276.603 301.215H374.155C377.206 301.168 380.131 299.993 382.368 297.917C384.604 295.841 385.993 293.011 386.266 289.972L396.261 158.963C396.532 155.924 397.919 153.094 400.154 151.018C402.389 148.941 405.314 147.766 408.364 147.719H310.812Z" fill="white"/>
<path d="M363.764 289.972C363.626 291.41 363.794 292.861 364.255 294.229C364.717 295.598 365.462 296.854 366.442 297.915C367.422 298.976 368.615 299.819 369.942 300.387C371.27 300.956 372.703 301.238 374.147 301.215H276.595C275.151 301.238 273.718 300.956 272.39 300.387C271.063 299.819 269.87 298.976 268.89 297.915C267.91 296.854 267.165 295.598 266.703 294.229C266.242 292.861 266.074 291.41 266.212 289.972H363.764Z" fill="#F0F0F0"/>
<path d="M306.663 287.384C307.035 282.598 305.53 278.729 300.752 278.729H375.867C380.645 278.729 384.242 283.102 381.786 287.384H306.663Z" fill="#E0E0E0"/>
<path d="M363.764 289.972C364.03 286.929 365.414 284.093 367.65 282.012C369.885 279.93 372.813 278.752 375.867 278.704H278.315C275.265 278.751 272.34 279.926 270.105 282.002C267.87 284.079 266.483 286.909 266.212 289.947L363.764 289.972Z" fill="#F0F0F0"/>
<path d="M409.886 322.453H297.908C297.529 322.458 297.153 322.384 296.805 322.234C296.456 322.084 296.143 321.863 295.886 321.585C295.629 321.307 295.433 320.977 295.311 320.619C295.19 320.26 295.145 319.879 295.179 319.502C295.253 318.705 295.617 317.964 296.203 317.419C296.788 316.875 297.554 316.565 298.354 316.55H410.34C410.719 316.547 411.094 316.622 411.441 316.772C411.788 316.922 412.1 317.143 412.356 317.422C412.613 317.7 412.808 318.029 412.929 318.387C413.05 318.745 413.095 319.125 413.06 319.502C412.987 320.298 412.623 321.04 412.037 321.584C411.451 322.129 410.685 322.438 409.886 322.453Z" fill="white"/>
<path d="M353.339 336.639H296.825C296.446 336.646 296.07 336.572 295.721 336.423C295.372 336.274 295.058 336.053 294.801 335.774C294.543 335.495 294.348 335.166 294.226 334.806C294.105 334.447 294.061 334.066 294.097 333.688C294.17 332.892 294.535 332.15 295.12 331.605C295.706 331.061 296.472 330.752 297.272 330.737H353.786C354.165 330.731 354.541 330.806 354.889 330.956C355.237 331.105 355.55 331.326 355.807 331.605C356.065 331.883 356.26 332.212 356.382 332.571C356.504 332.93 356.549 333.311 356.514 333.688C356.441 334.484 356.077 335.226 355.491 335.77C354.905 336.315 354.139 336.624 353.339 336.639Z" fill="white"/>
<path d="M392.467 336.639H369.575C369.196 336.646 368.82 336.572 368.471 336.423C368.122 336.274 367.808 336.052 367.551 335.774C367.293 335.495 367.098 335.165 366.976 334.806C366.855 334.447 366.811 334.065 366.847 333.688C366.92 332.891 367.285 332.15 367.87 331.605C368.456 331.061 369.222 330.751 370.022 330.736H392.913C393.292 330.733 393.667 330.808 394.015 330.958C394.363 331.108 394.675 331.329 394.932 331.607C395.189 331.885 395.385 332.214 395.507 332.572C395.629 332.931 395.675 333.311 395.642 333.688C395.568 334.484 395.204 335.226 394.618 335.77C394.033 336.315 393.267 336.624 392.467 336.639Z" fill="white"/>
<path d="M415.36 280.506L409.515 281.423C409.373 280.882 409.147 280.366 408.846 279.894C408.547 279.534 408.179 279.239 407.763 279.026L407.415 283.515C410.502 284.358 412.536 285.246 413.517 286.177C414.154 286.783 414.642 287.528 414.942 288.354C415.242 289.181 415.345 290.066 415.244 290.939C415.171 292.04 414.831 293.107 414.252 294.047C413.708 294.959 412.996 295.758 412.152 296.403C411.374 297.011 410.496 297.478 409.557 297.784C408.48 298.093 407.369 298.262 406.25 298.288L406.027 301.215H403.844L404.067 298.288C402.825 298.207 401.598 297.96 400.421 297.553C399.54 297.224 398.735 296.717 398.057 296.065C397.451 295.484 396.965 294.79 396.627 294.023C396.278 293.179 396.063 292.287 395.99 291.377L402.315 290.65C402.35 291.423 402.548 292.181 402.893 292.873C403.262 293.405 403.772 293.823 404.365 294.08L404.778 288.599C403.295 288.219 401.846 287.716 400.446 287.095C399.564 286.624 398.831 285.917 398.33 285.053C397.738 284.013 397.495 282.81 397.635 281.622C397.691 280.74 397.921 279.878 398.313 279.086C398.705 278.294 399.25 277.588 399.917 277.009C401.588 275.662 403.674 274.934 405.82 274.95L405.936 273.413H408.201L408.085 274.95C409.946 274.947 411.761 275.525 413.277 276.604C414.44 277.594 415.185 278.988 415.36 280.506ZM405.497 278.952C404.954 279.097 404.458 279.382 404.059 279.778C403.774 280.093 403.605 280.495 403.579 280.919C403.536 281.34 403.644 281.762 403.885 282.11C404.229 282.509 404.684 282.796 405.192 282.936L405.497 278.952ZM406.597 294.237C407.346 294.112 408.044 293.774 408.606 293.262C409.023 292.862 409.281 292.325 409.333 291.749C409.375 291.263 409.227 290.78 408.92 290.402C408.388 289.852 407.717 289.457 406.977 289.261L406.597 294.237Z" fill="white"/>
<path d="M305.232 184.186H308.018L307.331 193.164H304.554L305.232 184.186Z" fill="#4A57ED"/>
<path d="M310.027 184.186H312.615L315.616 189.146L315.996 184.186H318.608L317.922 193.164H315.31L312.325 188.203L311.945 193.164H309.341L310.027 184.186Z" fill="#4A57ED"/>
<path d="M319.568 184.186H322.47L324 190.65L326.48 184.186H329.291L325.306 193.164H322.305L319.568 184.186Z" fill="#4A57ED"/>
<path d="M329.083 188.683C329.122 187.394 329.654 186.168 330.571 185.261C331.537 184.415 332.794 183.976 334.076 184.037C334.69 183.99 335.307 184.072 335.886 184.279C336.466 184.486 336.996 184.812 337.441 185.236C337.83 185.698 338.117 186.238 338.28 186.82C338.444 187.402 338.482 188.012 338.392 188.609C338.357 189.514 338.107 190.398 337.664 191.188C337.267 191.853 336.695 192.397 336.011 192.759C335.224 193.153 334.352 193.346 333.473 193.321C332.62 193.354 331.77 193.187 330.993 192.834C330.342 192.498 329.818 191.962 329.496 191.304C329.123 190.484 328.98 189.578 329.083 188.683ZM331.861 188.683C331.74 189.358 331.866 190.054 332.216 190.643C332.375 190.84 332.579 190.996 332.81 191.099C333.042 191.201 333.295 191.246 333.547 191.23C333.812 191.242 334.077 191.197 334.322 191.097C334.568 190.997 334.788 190.845 334.969 190.651C335.407 190.046 335.636 189.315 335.622 188.568C335.734 187.923 335.602 187.26 335.25 186.708C335.089 186.512 334.884 186.357 334.651 186.256C334.418 186.156 334.164 186.112 333.911 186.129C333.649 186.122 333.389 186.172 333.148 186.274C332.907 186.377 332.691 186.531 332.514 186.724C332.086 187.29 331.856 187.982 331.861 188.692V188.683Z" fill="#4A57ED"/>
<path d="M340.335 184.186H343.112L342.434 193.164H339.648L340.335 184.186Z" fill="#4A57ED"/>
<path d="M350.677 189.493L353.049 190.229C352.866 190.851 352.56 191.43 352.148 191.932C351.779 192.383 351.305 192.738 350.768 192.965C350.127 193.221 349.44 193.342 348.75 193.321C347.943 193.35 347.139 193.204 346.394 192.891C345.748 192.568 345.226 192.042 344.906 191.394C344.484 190.548 344.323 189.596 344.443 188.658C344.467 187.371 344.985 186.142 345.89 185.227C346.837 184.396 348.071 183.969 349.329 184.037C350.251 183.976 351.168 184.217 351.942 184.723C352.601 185.252 353.054 185.995 353.223 186.823L350.743 187.368C350.702 187.159 350.626 186.958 350.52 186.773C350.39 186.566 350.208 186.397 349.991 186.285C349.761 186.167 349.505 186.107 349.247 186.112C348.952 186.102 348.66 186.167 348.397 186.3C348.134 186.433 347.909 186.63 347.742 186.872C347.411 187.4 347.233 188.01 347.229 188.633C347.102 189.331 347.206 190.051 347.527 190.683C347.672 190.869 347.86 191.016 348.074 191.113C348.289 191.209 348.524 191.252 348.759 191.237C348.985 191.252 349.212 191.22 349.425 191.143C349.639 191.066 349.834 190.946 349.999 190.791C350.325 190.419 350.558 189.973 350.677 189.493Z" fill="#4A57ED"/>
<path d="M354.851 184.186H362.292L362.151 186.104H357.497L357.389 187.534H361.68L361.539 189.361H357.224L357.083 191.13H361.878L361.721 193.164H354.148L354.851 184.186Z" fill="#4A57ED"/>
<path d="M384.299 204.755H303.67L303.835 202.522H384.473L384.299 204.755Z" fill="#4A57ED"/>
<path d="M384.299 204.754H303.67L303.141 211.607H383.778L384.299 204.754Z" fill="#F0F0F0"/>
<path d="M383.258 218.453H302.62L302.1 225.298H382.737L383.258 218.453Z" fill="#F0F0F0"/>
<path d="M382.208 232.143H301.578L301.058 238.997H381.687L382.208 232.143Z" fill="#F0F0F0"/>
<path d="M381.166 245.842H300.529L300.008 252.687H380.645L381.166 245.842Z" fill="#F0F0F0"/>
<path d="M379.951 261.773H299.313L299.487 259.532H380.125L379.951 261.773Z" fill="#4A57ED"/>
<path d="M370.724 163.03H387.482L386.721 173.025H369.964L370.724 163.03Z" fill="#F0F0F0"/>
<path d="M206.41 226.62L209.403 227.819C210.495 228.258 211.453 228.976 212.18 229.902L213.553 231.638C213.996 232.195 214.229 232.891 214.21 233.603C214.192 234.315 213.924 234.998 213.453 235.532L211.998 237.185C211.732 237.489 211.408 237.736 211.046 237.913C210.683 238.091 210.289 238.194 209.886 238.218C209.483 238.242 209.079 238.185 208.698 238.052C208.317 237.919 207.967 237.711 207.666 237.441L206.261 236.201C206.261 236.201 201.962 233.184 200.697 229.191L201.524 228.364C202.143 227.708 202.908 227.209 203.757 226.905C204.607 226.602 205.516 226.504 206.41 226.62Z" fill="#FFB573"/>
<path d="M214.609 197.619L213.634 198.264L212.551 199.008C211.832 199.521 211.104 200.05 210.402 200.587C208.988 201.687 207.616 202.819 206.342 204.026C203.829 206.284 201.671 208.91 199.944 211.814C199.737 212.161 199.555 212.508 199.381 212.864L199.249 213.128C199.283 213.017 199.31 212.904 199.332 212.789C199.36 212.653 199.36 212.512 199.332 212.376C199.257 212.136 199.249 212.756 199.439 213.368C199.946 214.956 200.608 216.49 201.415 217.948C203.118 221.205 205.251 224.562 207.268 227.869L207.318 227.96C207.718 228.618 207.841 229.408 207.659 230.156C207.478 230.904 207.007 231.551 206.351 231.953C205.844 232.257 205.258 232.401 204.668 232.367C204.078 232.333 203.512 232.122 203.044 231.763C201.392 230.477 199.816 229.097 198.323 227.629C196.797 226.144 195.356 224.574 194.008 222.925C192.506 221.123 191.232 219.143 190.213 217.031C189.908 216.371 189.648 215.692 189.436 214.997C189.164 214.093 189.019 213.155 189.006 212.211C189 211.571 189.07 210.933 189.213 210.309C189.296 209.953 189.401 209.603 189.527 209.259L189.684 208.838C189.891 208.267 190.122 207.713 190.362 207.184C192.293 202.971 194.965 199.138 198.249 195.867C199.802 194.279 201.459 192.796 203.209 191.427C204.085 190.749 204.97 190.088 205.888 189.468C206.351 189.154 206.814 188.84 207.293 188.542L208.029 188.096L208.856 187.616C210.154 186.915 211.67 186.737 213.096 187.117C214.521 187.497 215.747 188.407 216.524 189.661C217.301 190.915 217.57 192.418 217.275 193.863C216.981 195.309 216.146 196.587 214.94 197.437L214.609 197.619Z" fill="#FFB573"/>
<path d="M214.709 184.499C209.881 184.499 204.59 186.591 197.811 194.998C197.811 200.016 208.401 206.688 208.401 206.688C208.401 206.688 225.762 184.458 214.709 184.499Z" fill="#263238"/>
<path d="M178.838 383.233C178.751 383.231 178.665 383.217 178.582 383.192C177.581 382.836 176.639 380.29 176.581 378.868C176.577 378.824 176.587 378.779 176.609 378.741C176.631 378.702 176.665 378.671 176.705 378.653C176.743 378.629 176.788 378.616 176.833 378.616C176.879 378.616 176.923 378.629 176.961 378.653C177.069 378.744 179.557 380.786 179.673 382.158C179.689 382.291 179.678 382.425 179.639 382.554C179.601 382.682 179.536 382.8 179.45 382.902C179.378 382.998 179.286 383.078 179.18 383.135C179.075 383.192 178.958 383.225 178.838 383.233ZM177.11 379.422C177.333 380.769 178.102 382.522 178.764 382.729C178.829 382.75 178.9 382.748 178.964 382.724C179.029 382.7 179.083 382.655 179.119 382.596C179.165 382.542 179.199 382.479 179.219 382.41C179.239 382.342 179.245 382.27 179.235 382.199C179.144 381.414 177.92 380.149 177.11 379.422Z" fill="#263238"/>
<path d="M180.393 380.199C179.081 380.127 177.807 379.736 176.681 379.058C176.645 379.033 176.616 378.997 176.598 378.957C176.581 378.916 176.575 378.871 176.582 378.827C176.59 378.782 176.61 378.74 176.641 378.706C176.672 378.673 176.711 378.648 176.755 378.637C176.888 378.637 180.004 377.81 181.178 378.504C181.296 378.569 181.399 378.657 181.48 378.764C181.561 378.871 181.619 378.994 181.649 379.124C181.691 379.276 181.685 379.437 181.632 379.585C181.579 379.733 181.481 379.861 181.352 379.951C181.064 380.127 180.73 380.213 180.393 380.199ZM177.442 378.951C178.657 379.562 180.533 379.976 181.087 379.596C181.17 379.538 181.244 379.455 181.195 379.232C181.18 379.161 181.149 379.094 181.105 379.037C181.06 378.98 181.003 378.933 180.939 378.901C180.252 378.479 178.508 378.736 177.442 378.951Z" fill="#263238"/>
<path d="M168.017 378.314C170.466 375.694 172.541 372.747 174.184 369.559C174.184 369.559 181.856 371.444 180.351 373.693C177.615 377.702 176.284 385.945 179.806 390.359C181.814 392.881 178.64 393.302 176.499 392.219C173.192 390.508 173.299 389.863 171.538 387.028C170.05 384.605 169.463 383.655 167.405 382.613C165.751 381.712 166.578 380.025 168.017 378.314Z" fill="#87A1DB"/>
<path d="M233.079 234.333C233.079 234.333 221.968 288.566 213.816 311.772C205.268 336.094 181.665 373.635 180.748 375.247C177.391 374.346 174.399 373.172 172.406 371.229C172.406 371.229 183.484 330.513 194.281 304.1C198.415 248.958 207.418 234.375 207.418 234.375L233.079 234.333Z" fill="#263238"/>
<path opacity="0.2" d="M216.106 263.351C215.602 273.842 215.28 288.268 215.751 305.828C219.149 294.882 222.844 280.043 225.953 266.724C223.878 263.955 220.653 262.624 216.106 263.351Z" fill="black"/>
<path d="M216.776 167.833C217.942 172.553 219.083 180.233 217.223 184.367C217.223 184.367 224.184 184.681 233.079 191.807C237.271 185.656 232.418 184.449 232.418 184.449C228.722 183.623 228.904 178.662 228.913 175.149L216.776 167.833Z" fill="#FFB573"/>
<path d="M215.023 186.476C211.551 186.095 213.948 179.498 215.75 180.143C220.314 181.796 230.549 179.961 233.715 181.705C236.881 183.45 236.079 187.029 236.079 187.029C236.079 187.029 218.76 186.889 215.023 186.476Z" fill="#87A1DB"/>
<path opacity="0.7" d="M215.023 186.476C211.551 186.095 213.948 179.498 215.75 180.143C220.314 181.796 230.549 179.961 233.715 181.705C236.881 183.45 236.079 187.029 236.079 187.029C236.079 187.029 218.76 186.889 215.023 186.476Z" fill="white"/>
<path d="M235.278 159.507C235.394 160.135 235.816 160.59 236.229 160.516C236.642 160.441 236.882 159.871 236.775 159.243C236.667 158.614 236.237 158.16 235.824 158.234C235.411 158.308 235.196 158.879 235.278 159.507Z" fill="#263238"/>
<path d="M235.65 158.3L237.089 157.598C237.089 157.598 236.518 158.92 235.65 158.3Z" fill="#263238"/>
<path d="M236.121 154.465C236.14 154.42 236.149 154.373 236.149 154.324C236.149 154.276 236.14 154.228 236.121 154.184C236.094 154.088 236.03 154.006 235.944 153.957C235.857 153.907 235.754 153.894 235.658 153.919C235.078 154.061 234.54 154.339 234.088 154.73C233.637 155.121 233.285 155.614 233.062 156.168C233.035 156.263 233.044 156.366 233.089 156.454C233.133 156.543 233.209 156.612 233.302 156.647C233.397 156.679 233.501 156.671 233.591 156.626C233.681 156.582 233.749 156.503 233.781 156.408C233.961 155.97 234.243 155.581 234.604 155.275C234.966 154.968 235.395 154.753 235.856 154.647C235.911 154.637 235.962 154.615 236.008 154.584C236.053 154.552 236.092 154.512 236.121 154.465Z" fill="#263238"/>
<path d="M236.021 161.045C236.742 162.439 237.652 163.727 238.724 164.873C238.423 165.14 238.067 165.338 237.681 165.452C237.296 165.566 236.89 165.595 236.492 165.534L236.021 161.045Z" fill="#ED893E"/>
<path d="M213.701 159.185C215.544 166.857 216.181 170.139 220.703 173.437C227.54 178.398 236.369 174.479 236.816 166.427C237.212 159.168 234.137 147.851 226.151 146.082C218.165 144.312 211.857 151.513 213.701 159.185Z" fill="#FFB573"/>
<path d="M228.582 160.599C233.096 154.63 236.022 149.802 233.815 144.52C231.955 140.105 226.804 141.395 226.085 143.602C212.395 142.436 207.476 147.397 210.303 155.598C212.105 160.831 205.111 158.078 206.814 164.758C208.112 169.85 203.507 171.793 205.847 174.72C209.22 178.944 216.181 173.438 224.126 176.604C230.607 179.2 240.379 175.273 228.582 160.599Z" fill="#263238"/>
<path d="M227.828 161.806C228.201 162.419 228.7 162.946 229.291 163.352C229.882 163.758 230.553 164.034 231.259 164.162C233.053 164.427 233.673 162.41 232.913 160.541C232.251 158.888 230.523 156.697 228.829 157.301C227.134 157.904 226.811 160.194 227.828 161.806Z" fill="#FFB573"/>
<path d="M230.499 388.292C229.057 388.115 227.697 387.52 226.589 386.58C226.557 386.55 226.534 386.512 226.522 386.47C226.511 386.428 226.511 386.383 226.523 386.341C226.537 386.297 226.563 386.258 226.598 386.229C226.633 386.2 226.676 386.181 226.721 386.175C226.853 386.175 230.028 385.82 231.119 386.696C231.228 386.776 231.318 386.879 231.382 386.998C231.446 387.116 231.484 387.248 231.491 387.382C231.526 387.547 231.504 387.718 231.429 387.868C231.354 388.018 231.23 388.138 231.078 388.209C230.893 388.278 230.696 388.306 230.499 388.292ZM227.349 386.589C228.474 387.374 230.268 388.06 230.871 387.763C230.962 387.713 231.045 387.639 231.028 387.415C231.023 387.343 231.002 387.273 230.966 387.21C230.93 387.147 230.881 387.093 230.822 387.052C230.235 386.539 228.441 386.523 227.349 386.589Z" fill="#263238"/>
<path d="M226.746 386.647C226.709 386.645 226.673 386.635 226.64 386.618C226.607 386.601 226.578 386.577 226.556 386.547C226.531 386.509 226.519 386.465 226.519 386.419C226.519 386.374 226.531 386.329 226.556 386.291C226.622 386.175 228.209 383.381 229.557 383.042C229.686 383.003 229.823 382.992 229.957 383.01C230.091 383.029 230.22 383.076 230.334 383.15C230.482 383.224 230.601 383.346 230.673 383.495C230.744 383.645 230.765 383.814 230.731 383.976C230.549 385.026 228.184 386.374 226.804 386.663L226.746 386.647ZM229.829 383.472H229.664C228.887 383.67 227.837 385.084 227.25 386.002C228.54 385.555 230.152 384.514 230.268 383.852C230.268 383.753 230.268 383.637 230.077 383.513C230 383.479 229.914 383.465 229.829 383.472Z" fill="#263238"/>
<path d="M236.642 391.194C229.946 390.673 225.432 386.076 225.895 381.207C226.151 378.52 217.57 378.28 217.57 378.28C218.926 386.605 217.223 387.796 216.661 389.945C216.098 392.095 216.239 394.476 218.016 394.517C220.141 394.575 221.133 394.17 223.803 394.269C226.895 394.393 230.235 394.509 235.733 394.517C237.907 394.525 239.618 391.425 236.642 391.194Z" fill="#87A1DB"/>
<path d="M244.653 234.333C244.653 234.333 244.066 275.413 240.826 302.405C237.585 329.397 226.441 382.34 226.441 382.34C223.51 383.032 220.455 383.004 217.537 382.257C217.537 382.257 214.015 340.922 219.926 300.933C215.586 259.044 212.866 234.333 212.866 234.333H244.653Z" fill="#263238"/>
<path d="M246.173 196.337C246.033 199.512 251.043 206.853 244.859 211.102C246.016 213.69 246.992 231.208 244.652 234.333C241.238 236.813 222.761 236.358 207.45 234.333C206.797 228 210.286 214.88 206.012 194.427C205.777 193.308 205.781 192.151 206.023 191.033C206.265 189.915 206.739 188.86 207.415 187.937C208.091 187.014 208.954 186.243 209.947 185.675C210.94 185.107 212.041 184.754 213.179 184.639C214.469 184.515 215.833 184.399 217.23 184.333C222.11 183.99 227.008 183.99 231.888 184.333C233.467 184.482 235.104 184.68 236.666 184.904C239.388 185.287 241.87 186.671 243.627 188.785C245.385 190.898 246.293 193.591 246.173 196.337Z" fill="#87A1DB"/>
<g opacity="0.3">
<path d="M206.391 193.32L206.052 193.51C206.022 193.519 205.994 193.535 205.97 193.556C205.947 193.577 205.928 193.604 205.916 193.633C205.904 193.662 205.898 193.694 205.9 193.726C205.901 193.758 205.91 193.789 205.925 193.817C205.94 193.845 205.961 193.869 205.986 193.888C206.012 193.907 206.041 193.92 206.072 193.926C206.103 193.933 206.136 193.932 206.166 193.924C206.197 193.916 206.226 193.902 206.251 193.882L206.631 193.675C208.284 194.279 210.045 195.651 211.062 195.792C209.409 194.345 208.243 193.311 206.928 193.493C207.317 193.262 207.697 193.03 208.078 192.782C209.582 193.344 211.219 194.601 212.153 194.725C210.632 193.386 209.541 192.427 208.342 192.609L209.169 192.038L209.632 191.699C210.996 192.286 212.434 193.535 213.294 193.708C211.922 192.352 210.955 191.393 209.797 191.584C210.161 191.311 210.516 191.038 210.864 190.757C212.112 191.302 213.435 192.41 214.22 192.6C212.963 191.352 212.079 190.476 211.012 190.641L211.905 189.897L212.12 189.715C213.22 190.294 214.311 191.435 215.03 191.641C213.989 190.393 213.261 189.525 212.17 189.666C212.451 189.426 212.732 189.178 212.997 188.922C214.013 189.459 215.014 190.509 215.675 190.699C214.716 189.55 214.022 188.756 213.046 188.88L213.922 188.054C214.807 188.599 215.65 189.591 216.237 189.798C215.411 188.707 214.881 187.954 213.98 187.996C214.137 187.839 214.294 187.69 214.443 187.533L214.708 187.26C215.535 187.764 216.303 188.682 216.841 188.872C216.113 187.872 215.592 187.169 214.766 187.219C215.005 186.971 215.245 186.714 215.477 186.458C216.221 186.863 216.923 187.632 217.419 187.781C216.766 186.954 216.303 186.342 215.51 186.425L215.642 186.284L216.138 185.706C216.707 186.136 217.297 186.536 217.907 186.904C217.312 186.136 216.89 185.598 216.179 185.656C216.37 185.425 216.56 185.177 216.725 184.929C216.732 184.922 216.738 184.915 216.742 184.906C216.745 184.898 216.747 184.888 216.747 184.879C216.747 184.87 216.745 184.86 216.742 184.852C216.738 184.843 216.732 184.836 216.725 184.829C216.712 184.819 216.696 184.814 216.68 184.814C216.663 184.814 216.647 184.819 216.634 184.829C216.469 185.061 216.295 185.284 216.113 185.499C216.151 185.11 216.042 184.72 215.807 184.408H215.526C215.703 184.806 215.854 185.215 215.981 185.631C215.832 185.805 215.675 185.97 215.526 186.136L215.419 186.251C215.576 185.648 215.262 185.127 214.782 184.466H214.625C214.757 184.978 215.146 185.681 215.303 186.359L214.642 187.028C214.857 186.268 214.328 185.598 213.592 184.647C213.592 185.218 214.286 186.202 214.551 187.128L214.319 187.359L213.865 187.789C214.071 186.962 213.509 186.243 212.707 185.226C212.707 185.838 213.46 186.88 213.749 187.896L212.922 188.616C213.096 187.789 212.542 186.962 211.79 185.888C211.79 186.541 212.459 187.698 212.732 188.781L212.079 189.335C212.269 188.442 211.674 187.566 210.855 186.367C210.855 187.078 211.583 188.335 211.872 189.509L211.699 189.649C211.401 189.897 211.095 190.137 210.789 190.377C211.029 189.459 210.459 188.426 209.673 187.02C209.615 187.781 210.293 189.269 210.5 190.583C210.153 190.848 209.805 191.096 209.45 191.352C209.847 190.31 209.202 189.145 208.309 187.524C208.235 188.351 209.012 190.054 209.235 191.501L208.921 191.716L207.937 192.352C208.392 191.302 207.838 190.062 207.028 188.376C206.986 188.434 206.945 188.492 206.912 188.55C206.97 189.542 207.549 191.129 207.673 192.51C207.309 192.741 206.928 192.956 206.556 193.163C206.986 192.286 206.738 191.294 206.209 190.054C206.088 190.405 205.991 190.764 205.92 191.129C206.133 191.846 206.291 192.578 206.391 193.32Z" fill="#263238"/>
<path d="M227.514 187.591C226.265 186.764 225.033 185.334 224.207 185.028C225.339 186.582 226.149 187.682 227.323 187.682C226.918 187.888 226.497 188.103 226.133 188.327C224.992 187.591 223.868 186.252 223.115 185.971C224.157 187.401 224.901 188.409 225.976 188.451C225.637 188.641 225.306 188.839 224.976 189.038L224.736 189.186C223.736 188.442 222.843 187.144 222.165 186.822C222.991 188.227 223.578 189.195 224.645 189.228C224.322 189.418 224.008 189.625 223.694 189.831C222.785 189.145 221.958 187.946 221.338 187.657C222.099 188.938 222.628 189.831 223.645 189.864L222.653 190.534C221.867 189.856 221.189 188.74 220.644 188.442C221.255 189.641 221.685 190.484 222.586 190.584L222.049 190.964L221.751 191.187C221.024 190.567 220.396 189.534 219.891 189.261C220.462 190.369 220.859 191.137 221.685 191.237C221.404 191.443 221.131 191.65 220.859 191.865C220.181 191.352 219.61 190.484 219.139 190.261C219.66 191.204 220.015 191.857 220.792 191.915L220.644 192.03L220.057 192.526C219.445 192.047 218.924 191.261 218.494 191.055C218.965 191.882 219.321 192.51 220.007 192.568C219.784 192.766 219.561 192.981 219.346 193.204C219.339 193.21 219.333 193.217 219.329 193.224C219.326 193.232 219.324 193.241 219.324 193.25C219.324 193.258 219.326 193.267 219.329 193.275C219.333 193.283 219.339 193.29 219.346 193.295C219.358 193.307 219.374 193.313 219.391 193.313C219.408 193.313 219.424 193.307 219.437 193.295C219.631 193.09 219.838 192.896 220.057 192.716C219.85 193.279 220.148 193.849 220.544 194.626C220.476 193.942 220.363 193.262 220.205 192.592C220.379 192.444 220.553 192.311 220.735 192.171L220.859 192.072C220.577 192.708 220.9 193.345 221.355 194.238C221.274 193.479 221.15 192.725 220.983 191.981C221.239 191.782 221.487 191.6 221.751 191.419C221.421 192.13 221.834 192.882 222.413 193.899C222.471 193.337 221.966 192.245 221.859 191.303L222.123 191.113L222.636 190.765C222.305 191.534 222.743 192.344 223.372 193.477C223.43 192.865 222.892 191.7 222.768 190.675L223.669 190.096C223.363 190.881 223.777 191.749 224.347 192.965C224.446 192.32 223.975 191.071 223.876 189.964L224.612 189.517C224.281 190.344 224.728 191.328 225.356 192.642C225.463 191.939 224.942 190.575 224.843 189.377L225.033 189.269L226.05 188.69C225.67 189.558 226.05 190.666 226.612 192.187C226.794 191.443 226.364 189.864 226.348 188.533C226.736 188.327 227.117 188.128 227.514 187.938C226.951 188.905 227.398 190.154 228.034 191.898C228.233 191.071 227.737 189.294 227.745 187.831L228.084 187.665L229.167 187.186C228.522 188.194 228.927 189.583 229.506 191.509C229.77 190.617 229.341 188.666 229.448 187.07C229.845 186.905 230.275 186.756 230.655 186.607C229.878 187.707 230.324 189.236 230.961 191.369C231.259 190.402 230.779 188.252 230.903 186.524L231.275 186.392C231.302 186.384 231.328 186.37 231.349 186.352C231.371 186.333 231.388 186.31 231.401 186.285C231.413 186.259 231.42 186.231 231.421 186.203C231.422 186.174 231.418 186.146 231.407 186.119C231.387 186.067 231.347 186.024 231.297 186C231.246 185.975 231.188 185.971 231.135 185.987L230.729 186.136C229.772 185.526 228.855 184.855 227.985 184.127H227.323C228.398 185.408 229.283 186.268 230.382 186.285C229.961 186.442 229.556 186.624 229.134 186.805C227.737 185.979 226.323 184.515 225.422 184.234C226.712 185.805 227.638 186.921 228.853 186.93L227.927 187.359L227.514 187.591Z" fill="#263238"/>
<path d="M217.189 203.05C216.279 202.058 215.643 201.397 214.75 201.504L215.163 201L215.395 200.702C216.222 201.108 217.131 201.934 217.693 202.058C216.866 201.149 216.263 200.504 215.436 200.636C215.651 200.363 215.858 200.091 216.064 199.81C216.85 200.124 217.635 200.81 218.148 200.901C217.395 200.132 216.875 199.595 216.089 199.768C216.132 199.719 216.171 199.667 216.205 199.611C216.354 199.405 216.494 199.198 216.635 198.983C217.251 199.35 217.885 199.683 218.536 199.983C217.85 199.28 217.379 198.793 216.676 198.933C216.842 198.677 216.999 198.412 217.139 198.107C217.147 198.09 217.148 198.071 217.141 198.054C217.135 198.037 217.123 198.023 217.106 198.016C217.09 198.008 217.071 198.007 217.054 198.013C217.037 198.02 217.023 198.032 217.015 198.049C216.882 198.298 216.733 198.538 216.569 198.768C216.618 198.173 216.18 197.701 215.585 197.057C215.835 197.701 216.128 198.328 216.461 198.933L216.064 199.479L215.965 199.603C216.073 198.917 215.585 198.388 214.915 197.652C215.192 198.365 215.512 199.061 215.874 199.735L215.287 200.479C215.411 199.694 214.816 199.09 213.973 198.222C214.072 198.784 214.8 199.694 215.205 200.578L214.998 200.835L214.593 201.306C214.709 200.479 214.072 199.818 213.163 198.892C213.27 199.495 214.097 200.479 214.494 201.43L213.783 202.257C213.865 201.43 213.229 200.678 212.352 199.669C212.435 200.322 213.229 201.397 213.617 202.439L213.03 203.067C213.121 202.157 212.427 201.356 211.476 200.256C211.559 200.959 212.419 202.133 212.84 203.257L212.683 203.422C212.419 203.703 212.138 203.976 211.856 204.249C211.997 203.315 211.319 202.356 210.385 201.041C210.385 201.802 211.212 203.207 211.617 204.489C211.303 204.786 210.98 205.084 210.658 205.365C210.939 204.29 210.17 203.207 209.095 201.694C209.095 202.521 210.079 204.125 210.459 205.539L210.17 205.787C209.872 206.043 209.566 206.291 209.261 206.539C209.616 205.39 208.847 204.166 207.781 202.463C207.781 203.389 208.698 205.158 209.021 206.721C208.685 206.985 208.337 207.242 207.979 207.49C208.089 207.102 208.117 206.695 208.063 206.296C208.009 205.896 207.874 205.512 207.665 205.167C207.764 206.15 207.847 207.109 207.913 208.052L208.029 207.969C209.724 208.391 211.642 209.548 212.667 209.573C210.881 208.316 209.591 207.424 208.326 207.754C208.69 207.481 209.046 207.2 209.393 206.928C210.955 207.316 212.7 208.383 213.659 208.407C212.005 207.242 210.807 206.407 209.633 206.754C209.897 206.531 210.153 206.316 210.41 206.084L210.831 205.696C212.253 206.134 213.824 207.217 214.692 207.283C213.187 206.093 212.113 205.249 210.98 205.564C211.311 205.258 211.633 204.943 211.956 204.621C213.254 205.026 214.7 206.018 215.494 206.084C214.105 204.985 213.121 204.208 212.08 204.497C212.352 204.216 212.625 203.943 212.906 203.67L213.097 203.464C214.254 203.918 215.469 204.927 216.205 205.059C215.031 203.935 214.213 203.15 213.146 203.406C213.394 203.133 213.65 202.852 213.89 202.579C214.957 203.001 216.073 203.927 216.751 204.042C215.676 203.009 214.924 202.298 213.94 202.529C214.204 202.232 214.461 201.926 214.709 201.62C215.635 202.017 216.585 202.91 217.189 203.05Z" fill="#263238"/>
<path d="M231.582 202.447C230.987 202.711 230.185 203.778 229.3 204.456L228.531 204.075C229.432 203.902 229.995 203.009 230.772 201.777C230.119 202.058 229.25 203.224 228.291 203.959L228.093 203.852C227.746 203.678 227.407 203.488 227.068 203.306C228.002 203.166 228.721 202.232 229.705 200.95C228.978 201.198 227.886 202.414 226.77 203.141C226.39 202.926 226.018 202.711 225.646 202.48C226.754 202.438 227.572 201.38 228.705 199.909C227.878 200.19 226.663 201.562 225.398 202.339L225.076 202.141L224.1 201.488C225.291 201.488 226.241 200.405 227.556 198.883C226.663 199.131 225.249 200.537 223.852 201.314C223.494 201.066 223.147 200.81 222.81 200.545C224.15 200.611 225.2 199.413 226.663 197.726C225.679 197.991 224.125 199.553 222.595 200.38L222.29 200.132C222.248 200.093 222.193 200.071 222.137 200.071C222.08 200.071 222.025 200.093 221.984 200.132C221.945 200.172 221.924 200.225 221.924 200.281C221.924 200.336 221.945 200.389 221.984 200.429L222.323 200.694C222.422 202.438 221.868 204.613 222.141 205.605C222.819 203.521 223.306 202.025 222.62 200.917C222.984 201.182 223.356 201.438 223.728 201.686C223.811 203.339 223.306 205.29 223.563 206.2C224.191 204.274 224.637 202.893 223.984 201.86L224.811 202.405L225.307 202.703C225.307 204.183 224.728 206.01 224.91 206.836C225.613 205.051 226.109 203.778 225.481 202.794C225.869 203.017 226.307 203.232 226.663 203.447C226.663 204.811 226.134 206.473 226.299 207.258C226.944 205.605 227.399 204.439 226.82 203.53L227.862 204.059L228.11 204.183C228.019 205.415 227.407 206.878 227.498 207.614C228.234 206.167 228.738 205.133 228.176 204.207L229.193 204.679C229.102 205.82 228.539 207.159 228.63 207.845C229.3 206.506 229.763 205.58 229.25 204.712C229.614 204.877 229.978 205.034 230.35 205.183C230.201 206.208 229.622 207.382 229.664 208.002C230.35 206.836 230.821 206.026 230.424 205.216L231.036 205.464L231.383 205.596C231.251 206.547 230.722 207.622 230.755 208.192C231.383 207.126 231.822 206.373 231.458 205.621C231.78 205.745 232.103 205.869 232.433 205.977C232.367 206.803 231.937 207.771 232.003 208.291C232.516 207.349 232.83 206.688 232.483 205.993L232.665 206.059C232.905 206.134 233.144 206.216 233.392 206.283C233.224 206.978 233.091 207.682 232.995 208.391C233.458 207.564 233.822 206.936 233.45 206.299C233.743 206.391 234.041 206.463 234.343 206.514C234.359 206.517 234.376 206.513 234.39 206.504C234.404 206.495 234.413 206.481 234.417 206.464C234.42 206.447 234.417 206.429 234.408 206.414C234.399 206.399 234.385 206.387 234.368 206.382C234.087 206.324 233.814 206.249 233.541 206.167C234.12 206.035 234.442 205.489 234.88 204.728C234.467 204.91 233.946 205.646 233.351 206.109L232.714 205.894L232.566 205.836C233.252 205.737 233.616 205.117 234.12 204.257C233.649 204.464 233.078 205.282 232.409 205.778C232.119 205.671 231.822 205.563 231.532 205.439C232.309 205.332 232.723 204.613 233.293 203.53C232.789 203.786 232.144 204.786 231.408 205.39L231.102 205.266L230.532 205.018C231.359 204.894 231.805 204.083 232.425 202.951C231.879 203.224 231.185 204.298 230.391 204.96C230.061 204.819 229.738 204.67 229.416 204.513C230.35 204.398 230.871 203.579 231.582 202.447Z" fill="#263238"/>
<path d="M226.811 213.467C227.446 213.793 228.097 214.085 228.762 214.343C228.043 213.69 227.53 213.236 226.844 213.409C226.993 213.145 227.134 212.88 227.258 212.583C227.261 212.574 227.263 212.566 227.264 212.557C227.264 212.548 227.263 212.539 227.26 212.53C227.257 212.522 227.252 212.514 227.246 212.507C227.24 212.501 227.233 212.495 227.224 212.492C227.216 212.488 227.208 212.486 227.199 212.485C227.19 212.485 227.181 212.486 227.172 212.489C227.164 212.492 227.156 212.497 227.149 212.503C227.143 212.509 227.137 212.517 227.134 212.525C227.01 212.781 226.877 213.029 226.737 213.277C226.737 212.682 226.274 212.235 225.645 211.624C225.933 212.248 226.262 212.853 226.629 213.434L226.274 214.004L226.183 214.137C226.241 213.442 225.728 212.946 225.009 212.26C225.331 212.95 225.693 213.62 226.092 214.269L225.563 215.054C225.637 214.269 225.001 213.69 224.108 212.888C224.24 213.442 225.067 214.302 225.48 215.162L225.29 215.426C225.174 215.592 225.042 215.757 224.918 215.922C224.984 215.096 224.306 214.467 223.339 213.608C223.488 214.203 224.372 215.129 224.827 216.088C224.612 216.377 224.389 216.658 224.166 216.914C224.166 216.088 223.521 215.377 222.578 214.434C222.702 215.071 223.562 216.088 224.009 217.113C223.832 217.339 223.65 217.562 223.463 217.783C223.463 216.865 222.76 216.129 221.743 215.071C221.867 215.765 222.802 216.881 223.298 217.981L223.149 218.155C222.892 218.452 222.636 218.742 222.372 219.023C222.454 218.088 221.71 217.163 220.718 215.914C220.784 216.675 221.719 218.022 222.165 219.279C221.867 219.593 221.57 219.907 221.264 220.213C221.471 219.13 220.636 218.088 219.47 216.65C219.553 217.477 220.611 219.014 221.074 220.403L220.809 220.668L219.941 221.494C220.222 220.329 219.379 219.155 218.213 217.526C218.213 218.452 219.296 220.163 219.718 221.66C219.395 221.949 219.065 222.23 218.726 222.487C219.098 221.197 218.18 219.899 216.874 218.088C216.874 219.105 218.064 220.974 218.527 222.652L218.213 222.9C218.191 222.917 218.172 222.939 218.159 222.963C218.145 222.988 218.136 223.015 218.132 223.043C218.129 223.071 218.131 223.1 218.138 223.127C218.146 223.154 218.159 223.179 218.176 223.202C218.193 223.224 218.215 223.243 218.24 223.256C218.264 223.27 218.291 223.279 218.319 223.283C218.347 223.286 218.376 223.284 218.403 223.277C218.43 223.269 218.456 223.256 218.478 223.239L218.809 222.966C220.528 223.272 222.52 224.314 223.546 224.272C221.677 223.131 220.338 222.313 219.098 222.726C219.437 222.437 219.776 222.131 220.106 221.825C221.685 222.115 223.513 223.065 224.455 223.032C222.727 221.974 221.479 221.222 220.321 221.618C220.569 221.379 220.817 221.147 221.057 220.899L221.462 220.486C222.901 220.833 224.538 221.809 225.406 221.825C223.827 220.734 222.711 219.957 221.595 220.345C221.909 220.015 222.206 219.684 222.504 219.345C223.835 219.659 225.331 220.56 226.133 220.577C224.678 219.568 223.653 218.857 222.628 219.204C222.884 218.915 223.132 218.618 223.38 218.32L223.554 218.097C224.744 218.477 226.034 219.411 226.762 219.494C225.513 218.444 224.653 217.716 223.603 218.047L224.298 217.171C225.389 217.518 226.555 218.37 227.241 218.444C226.1 217.485 225.306 216.79 224.339 217.113C224.579 216.799 224.819 216.476 225.05 216.154C226.017 216.534 227.026 217.369 227.638 217.468C226.662 216.542 225.984 215.889 225.1 216.088C225.232 215.914 225.356 215.732 225.48 215.559C225.604 215.385 225.621 215.344 225.695 215.245C226.58 215.592 227.506 216.361 228.076 216.452C227.175 215.625 226.547 214.997 225.736 215.178C225.935 214.892 226.125 214.602 226.307 214.31C227.134 214.575 227.96 215.211 228.456 215.269C227.63 214.55 227.1 214.046 226.332 214.269L226.439 214.104L226.811 213.467Z" fill="#263238"/>
<path d="M231.821 222.693C231.997 222.467 232.179 222.252 232.366 222.048C232.242 222.627 232.598 223.156 233.094 223.883C232.937 223.211 232.741 222.549 232.507 221.899L232.978 221.42L233.086 221.304C232.887 221.974 233.284 222.569 233.846 223.387C233.673 222.645 233.458 221.914 233.201 221.196L233.888 220.543C233.656 221.296 234.152 221.99 234.863 222.966C234.863 222.395 234.218 221.378 233.987 220.485L234.235 220.271L234.698 219.857C234.458 220.684 234.995 221.411 235.756 222.461C235.756 221.841 235.07 220.75 234.814 219.758C235.086 219.518 235.359 219.295 235.64 219.064C235.434 219.89 235.954 220.717 236.665 221.833C236.665 221.18 236.062 219.989 235.839 218.906L236.517 218.377C236.285 219.262 236.856 220.155 237.633 221.387C237.633 220.676 236.971 219.386 236.723 218.212L236.905 218.071L237.839 217.385C237.567 218.286 238.096 219.336 238.831 220.775C238.914 220.014 238.294 218.501 238.12 217.187C238.476 216.939 238.831 216.691 239.195 216.451C238.757 217.476 239.36 218.667 240.204 220.32C240.303 219.493 239.584 217.766 239.377 216.311L239.691 216.112C240.03 215.905 240.369 215.699 240.708 215.509C240.187 216.583 240.766 217.906 241.535 219.75C241.692 218.832 241.03 216.947 240.939 215.36C241.312 215.145 241.692 214.938 242.08 214.748C241.444 215.93 242.08 217.394 242.973 219.436C243.147 218.435 242.411 216.36 242.32 214.632L242.667 214.459C242.693 214.447 242.715 214.431 242.734 214.41C242.753 214.39 242.768 214.366 242.777 214.339C242.786 214.313 242.79 214.285 242.788 214.257C242.786 214.23 242.779 214.203 242.767 214.178C242.754 214.152 242.737 214.129 242.716 214.11C242.694 214.091 242.67 214.077 242.643 214.068C242.616 214.058 242.587 214.055 242.559 214.056C242.53 214.058 242.503 214.066 242.477 214.078L242.097 214.277C240.485 213.616 238.749 212.177 237.74 212.003C239.327 213.508 240.468 214.591 241.766 214.484C241.369 214.69 240.981 214.922 240.592 215.145C239.104 214.533 237.517 213.219 236.591 213.062C238.063 214.459 239.121 215.451 240.328 215.31L239.46 215.856L238.98 216.178C237.641 215.533 236.244 214.236 235.401 214.037C236.715 215.443 237.649 216.435 238.815 216.286C238.443 216.542 238.079 216.807 237.715 217.112C236.484 216.526 235.235 215.335 234.408 215.153C235.624 216.443 236.484 217.352 237.55 217.228C237.244 217.46 236.93 217.691 236.632 217.931L236.409 218.113C235.334 217.493 234.284 216.311 233.573 216.079C234.566 217.369 235.227 218.253 236.36 218.154L235.491 218.865C234.499 218.303 233.532 217.212 232.879 216.997C233.797 218.179 234.433 218.997 235.442 218.915C235.136 219.171 234.838 219.427 234.541 219.741C233.714 219.163 232.887 218.138 232.292 217.914C233.044 219.03 233.582 219.808 234.483 219.799L233.995 220.237L233.722 220.502C232.896 219.965 232.185 219.022 231.647 218.849C232.35 219.874 232.838 220.593 233.673 220.585C233.416 220.824 233.168 221.064 232.929 221.312C232.201 220.891 231.523 220.097 231.027 219.932C231.656 220.758 232.094 221.403 232.896 221.354L232.763 221.486C232.59 221.668 232.408 221.858 232.242 222.048C231.573 221.651 230.961 220.932 230.515 220.783C231.085 221.568 231.482 222.122 232.168 222.098C231.962 222.321 231.769 222.555 231.589 222.8C231.582 222.806 231.577 222.814 231.573 222.823C231.569 222.831 231.567 222.841 231.567 222.85C231.567 222.859 231.569 222.869 231.573 222.877C231.577 222.886 231.582 222.893 231.589 222.899C231.595 222.906 231.602 222.912 231.61 222.916C231.617 222.92 231.626 222.922 231.635 222.922C231.644 222.922 231.652 222.92 231.66 222.916C231.668 222.912 231.675 222.906 231.68 222.899L231.821 222.693Z" fill="#263238"/>
<path d="M222.133 234.473C222.464 234.164 222.786 233.85 223.1 233.531C224.407 233.936 225.845 234.928 226.647 234.994C225.258 233.894 224.274 233.117 223.233 233.398C223.505 233.125 223.778 232.844 224.059 232.572L224.25 232.365C225.407 232.82 226.614 233.828 227.358 233.96C226.184 232.828 225.366 232.051 224.291 232.307C224.547 232.034 224.795 231.753 225.043 231.48C226.11 231.902 227.226 232.828 227.904 232.944C226.821 231.91 226.068 231.191 225.093 231.431L225.862 230.521C226.804 230.959 227.755 231.852 228.342 231.993C227.432 231.009 226.788 230.339 225.862 230.455L226.275 229.951L226.506 229.653C227.375 230.058 228.251 230.877 228.813 231.009C227.986 230.091 227.383 229.455 226.556 229.587C226.771 229.314 226.978 229.041 227.176 228.76C228.003 229.075 228.747 229.761 229.259 229.852C228.515 229.083 227.995 228.545 227.209 228.719L227.325 228.562C227.465 228.355 227.614 228.149 227.755 227.934C228.369 228.296 229.001 228.627 229.648 228.926C228.97 228.231 228.491 227.744 227.788 227.876C227.957 227.623 228.111 227.361 228.251 227.09C228.255 227.083 228.258 227.074 228.259 227.066C228.26 227.057 228.26 227.048 228.257 227.04C228.255 227.031 228.251 227.023 228.246 227.017C228.24 227.01 228.234 227.004 228.226 226.999C228.218 226.995 228.21 226.992 228.201 226.991C228.193 226.99 228.184 226.991 228.175 226.993C228.167 226.995 228.159 226.999 228.152 227.005C228.145 227.01 228.139 227.017 228.135 227.024C227.997 227.272 227.848 227.512 227.689 227.744C227.689 227.148 227.3 226.677 226.705 226.032C226.944 226.673 227.22 227.3 227.532 227.909L227.143 228.455L227.044 228.579C227.151 227.892 226.664 227.363 225.986 226.627C226.268 227.336 226.588 228.028 226.945 228.703C226.754 228.959 226.564 229.207 226.366 229.447C226.49 228.669 225.895 228.058 225.051 227.198C225.151 227.76 225.919 228.669 226.283 229.554C226.209 229.637 226.143 229.728 226.077 229.81L225.671 230.282C225.787 229.455 225.151 228.793 224.241 227.868C224.349 228.471 225.175 229.447 225.572 230.406L224.861 231.232C224.944 230.406 224.307 229.653 223.431 228.645C223.506 229.289 224.258 230.372 224.688 231.414L224.101 232.042C224.192 231.125 223.506 230.331 222.555 229.232C222.637 229.934 223.497 231.108 223.919 232.233L223.762 232.398L222.935 233.225C223.076 232.29 222.389 231.323 221.455 230.017C221.455 230.778 222.323 232.183 222.687 233.464L221.736 234.341C222.009 233.266 221.249 232.183 220.166 230.67C220.166 231.497 221.158 233.101 221.538 234.514L221.249 234.762C220.951 235.019 220.645 235.267 220.339 235.506C220.695 234.365 219.926 233.142 218.859 231.439C218.859 232.357 219.752 234.093 220.083 235.639H220.719C220.976 235.424 221.232 235.209 221.48 234.986C221.728 234.762 221.769 234.729 221.91 234.597C222.887 234.965 223.842 235.39 224.77 235.87H225.399C224.159 234.886 223.167 234.184 222.133 234.473Z" fill="#263238"/>
<path d="M217.56 231.928C217.56 232.754 218.18 234.11 218.618 235.491L219.246 235.54C219.172 234.515 218.469 233.383 217.56 231.928Z" fill="#263238"/>
<path d="M220.842 235.656L222.09 235.731C221.69 235.588 221.257 235.562 220.842 235.656Z" fill="#263238"/>
<path d="M244.899 233.919C244.924 233.871 244.947 233.821 244.965 233.77L244.668 233.663L244.519 233.613C244.752 233.574 244.969 233.471 245.147 233.316C245.221 233.101 245.296 232.869 245.362 232.613C245.053 232.952 244.719 233.267 244.362 233.555L243.461 233.233C244.238 233.117 244.651 232.406 245.221 231.315C244.717 231.571 244.072 232.572 243.337 233.183L243.031 233.059L242.46 232.811C243.287 232.679 243.733 231.877 244.353 230.736C243.808 231.017 243.113 232.092 242.32 232.754L241.344 232.307C242.171 232.133 242.683 231.315 243.394 230.182C242.799 230.447 241.997 231.522 241.113 232.2L240.344 231.819C241.245 231.637 241.807 230.745 242.584 229.513C241.931 229.802 241.063 230.968 240.104 231.695L239.906 231.596L238.881 231.042C239.815 230.902 240.534 229.967 241.518 228.694C240.79 228.942 239.699 230.158 238.583 230.877C238.203 230.67 237.831 230.447 237.459 230.224C238.566 230.174 239.385 229.124 240.517 227.653C239.691 227.926 238.475 229.306 237.211 230.083L236.888 229.885C236.557 229.67 236.235 229.455 235.913 229.223C237.103 229.223 238.054 228.14 239.368 226.628C238.475 226.876 237.062 228.281 235.665 229.058L234.615 228.281C235.962 228.347 237.012 227.148 238.475 225.462C237.492 225.735 235.937 227.289 234.408 228.116L234.102 227.876C234.08 227.859 234.054 227.846 234.027 227.838C234 227.831 233.972 227.829 233.944 227.832C233.887 227.839 233.835 227.868 233.8 227.913C233.765 227.958 233.75 228.015 233.756 228.072C233.763 228.128 233.793 228.18 233.838 228.215L234.177 228.471C234.276 230.216 233.722 232.398 233.995 233.382C234.673 231.307 235.16 229.81 234.474 228.694C234.838 228.967 235.21 229.223 235.582 229.471C235.665 231.075 235.16 233.076 235.417 233.985C236.045 232.051 236.491 230.678 235.838 229.645C236.128 229.827 236.409 230.017 236.665 230.191L237.161 230.488C237.161 231.968 236.582 233.795 236.764 234.622C237.467 232.828 237.963 231.563 237.335 230.571C237.723 230.802 238.161 231.017 238.517 231.224C238.517 232.588 237.988 234.258 238.153 235.035C238.798 233.382 239.253 232.224 238.674 231.315L239.716 231.836L239.964 231.96C239.873 233.2 239.261 234.655 239.352 235.399C240.088 233.944 240.592 232.919 240.03 231.993L241.047 232.464C240.964 233.572 240.435 234.853 240.476 235.556H240.517C241.171 234.266 241.609 233.357 241.104 232.497L242.204 232.977C242.08 233.803 241.683 234.729 241.559 235.382L241.782 235.341C242.311 234.415 242.609 233.688 242.278 233.01L242.882 233.25L243.237 233.39C243.123 233.973 242.968 234.548 242.774 235.11L243.155 234.994C243.306 234.763 243.4 234.499 243.427 234.224C243.455 233.949 243.415 233.671 243.312 233.415L244.287 233.77C244.258 234.05 244.206 234.326 244.13 234.597C244.256 234.534 244.378 234.462 244.494 234.382C244.498 234.17 244.443 233.962 244.337 233.779L244.519 233.837L244.899 233.919Z" fill="#263238"/>
<path d="M213.087 216.699C213.141 216.682 213.186 216.645 213.214 216.596C213.241 216.547 213.249 216.489 213.236 216.434C213.221 216.379 213.184 216.333 213.135 216.305C213.085 216.277 213.026 216.27 212.972 216.285L212.558 216.409C211.095 215.459 209.665 213.723 208.706 213.359C209.979 215.136 210.897 216.409 212.203 216.517C211.773 216.649 211.376 216.798 210.921 216.955C209.929 216.302 208.954 215.302 208.152 214.64C208.152 214.83 208.152 215.012 208.152 215.202C208.979 216.277 209.698 216.996 210.632 217.063C210.31 217.178 209.995 217.302 209.681 217.435L209.144 217.658C208.791 217.392 208.457 217.102 208.144 216.79C208.144 217.021 208.144 217.244 208.144 217.476C208.396 217.625 208.678 217.716 208.97 217.74L208.144 218.129C208.144 218.245 208.144 218.36 208.144 218.476L209.26 217.997C208.64 218.923 209.012 220.204 209.524 221.981C209.78 221.155 209.392 219.361 209.524 217.898L209.871 217.757L210.979 217.352C210.268 218.319 210.582 219.733 211.037 221.684C211.359 220.816 211.037 218.84 211.26 217.261C211.674 217.12 212.087 216.988 212.5 216.872C211.674 217.922 212.004 219.468 212.5 221.651C212.856 220.7 212.5 218.526 212.757 216.806L213.087 216.699Z" fill="#263238"/>
<path d="M207.978 221.85C207.978 221.949 208.027 222.04 208.06 222.147C208.166 221.429 208.166 220.7 208.06 219.981C208.035 220.618 208.011 221.246 207.978 221.85Z" fill="#263238"/>
<path d="M210.905 233.945L210.599 233.457C211.269 232.134 212.608 230.77 212.823 229.927C211.384 231.208 210.343 232.118 210.491 233.283C210.243 232.903 209.987 232.539 209.731 232.167C210.351 230.952 211.574 229.687 211.781 228.935C210.458 230.109 209.524 230.944 209.623 232.019L208.937 231.076L208.772 230.853C209.408 229.795 210.615 228.77 210.872 228.067C209.557 229.026 208.648 229.72 208.731 230.803L208.036 229.919C208.631 228.943 209.739 228.001 209.971 227.356C208.764 228.241 207.929 228.852 207.995 229.836L207.482 229.224V229.572L207.78 229.935C207.677 229.911 207.572 229.894 207.466 229.886C207.466 230.01 207.466 230.125 207.466 230.249L207.945 230.134L208.466 230.828C208.131 230.729 207.775 230.729 207.441 230.828V231.341C207.834 231.203 208.238 231.095 208.648 231.018L208.78 231.192L209.45 232.151C208.766 232.002 208.052 232.099 207.433 232.424C207.433 232.573 207.433 232.73 207.433 232.878C208.163 232.69 208.902 232.541 209.648 232.432C209.888 232.796 210.119 233.159 210.343 233.532C209.557 233.168 208.689 233.441 207.49 233.953C207.49 234.061 207.49 234.185 207.49 234.284H207.672C208.59 234.048 209.52 233.864 210.458 233.73L210.657 234.052L211.012 234.689L211.475 234.747C211.26 234.524 211.087 234.234 210.905 233.945Z" fill="#263238"/>
<path d="M207.672 226.438V226.827C207.905 226.609 208.1 226.355 208.251 226.074L207.672 226.438Z" fill="#263238"/>
<path d="M212.533 234.937L213.269 235.019C213.889 234.194 214.393 233.287 214.765 232.324C213.905 233.089 213.154 233.968 212.533 234.937Z" fill="#263238"/>
<path d="M211.699 234.887C212.385 233.49 213.601 232.052 213.774 231.175C212.336 232.614 211.294 233.655 211.426 234.854L211.699 234.887Z" fill="#263238"/>
<path d="M207.565 227.918C207.565 228.141 207.565 228.356 207.523 228.571C208.11 228.014 208.641 227.402 209.111 226.744C208.546 227.065 208.026 227.46 207.565 227.918Z" fill="#263238"/>
</g>
<path d="M264.957 207.705L268.611 203.828L273.678 210.962C273.678 210.962 269.404 213.988 265.312 213.872L264.841 212.822C264.463 212.019 264.276 211.138 264.296 210.25C264.316 209.362 264.542 208.491 264.957 207.705Z" fill="#FFB573"/>
<path d="M274.506 204.208L275.936 206.895C276.25 207.485 276.317 208.175 276.124 208.815C275.93 209.455 275.491 209.992 274.903 210.309L273.712 210.962L268.645 203.828L271.546 203.001C272.103 202.831 272.702 202.858 273.241 203.078C273.78 203.298 274.227 203.697 274.506 204.208Z" fill="#FFB573"/>
<path d="M245.678 193.791L245.992 195.37L246.339 197.024C246.587 198.14 246.827 199.264 247.108 200.331C247.646 202.546 248.29 204.72 248.977 206.82C249.661 208.837 250.49 210.801 251.457 212.698C252.23 214.259 253.252 215.683 254.482 216.914L252.73 216.088C252.217 216.022 252.118 216.179 252.391 216.17C252.825 216.124 253.248 216.001 253.639 215.807C254.878 215.238 256.058 214.549 257.161 213.748C258.393 212.921 259.641 211.946 260.873 210.946C262.105 209.945 263.353 208.879 264.56 207.895L264.692 207.796C265.21 207.373 265.857 207.141 266.525 207.14C267.193 207.138 267.842 207.366 268.362 207.786C268.881 208.206 269.241 208.792 269.38 209.446C269.518 210.099 269.428 210.781 269.124 211.375C268.294 212.959 267.369 214.491 266.354 215.964C265.32 217.455 264.194 218.88 262.981 220.23C261.658 221.719 260.162 223.046 258.525 224.181C257.499 224.874 256.388 225.429 255.218 225.835C254.464 226.098 253.682 226.27 252.887 226.347C251.901 226.435 250.907 226.362 249.944 226.132C249.381 225.997 248.85 225.753 248.381 225.413L248.183 225.264C245.644 223.362 243.505 220.977 241.892 218.245C241.137 217.016 240.459 215.776 239.858 214.525C239.257 213.274 238.706 212.023 238.204 210.772C237.248 208.303 236.436 205.78 235.774 203.216C235.452 201.943 235.146 200.678 234.889 199.396C234.765 198.752 234.633 198.115 234.526 197.462C234.418 196.809 234.319 196.197 234.211 195.42C234.02 193.935 234.412 192.433 235.305 191.231C236.198 190.028 237.522 189.219 239 188.973C240.477 188.727 241.992 189.063 243.227 189.91C244.461 190.758 245.319 192.051 245.62 193.518L245.678 193.791Z" fill="#FFB573"/>
<path d="M237.749 185.111C242.561 185.607 246.405 188.798 249.092 198.958C247.025 201.819 234.004 208.094 234.004 208.094C234.004 208.094 226.754 183.978 237.749 185.111Z" fill="#263238"/>
</svg>
